<svg width="64" height="64" viewBox="0 0 64 64" fill="none" xmlns="http://www.w3.org/2000/svg">
<rect width="64" height="64" rx="12" fill="white"/>
<path fill-rule="evenodd" clip-rule="evenodd" d="M14.3529 12C13.0534 12 12 12.9949 12 14.2222V51C12 51.5523 12.4477 52 13 52H18.6145C18.8599 52 19.0588 51.8011 19.0588 51.5557V44.2222C19.0588 43.6086 19.5855 43.1111 20.2353 43.1111H24.9412C25.5909 43.1111 26.1176 43.6086 26.1176 44.2222V51.5557C26.1176 51.8011 26.3166 52 26.562 52H33.1765V14.2222C33.1765 12.9949 32.123 12 30.8235 12H14.3529ZM16.7059 17.5556C16.7059 16.9419 17.2326 16.4444 17.8824 16.4444H20.2353C20.885 16.4444 21.4118 16.9419 21.4118 17.5556V19.7778C21.4118 20.3914 20.885 20.8889 20.2353 20.8889H17.8824C17.2326 20.8889 16.7059 20.3914 16.7059 19.7778V17.5556ZM17.8824 23.1111C17.2326 23.1111 16.7059 23.6086 16.7059 24.2222V26.4444C16.7059 27.0581 17.2326 27.5556 17.8824 27.5556H20.2353C20.885 27.5556 21.4118 27.0581 21.4118 26.4444V24.2222C21.4118 23.6086 20.885 23.1111 20.2353 23.1111H17.8824ZM16.7059 30.8889C16.7059 30.2752 17.2326 29.7778 17.8824 29.7778H20.2353C20.885 29.7778 21.4118 30.2752 21.4118 30.8889V33.1111C21.4118 33.7248 20.885 34.2222 20.2353 34.2222H17.8824C17.2326 34.2222 16.7059 33.7248 16.7059 33.1111V30.8889ZM24.9412 16.4444C24.2914 16.4444 23.7647 16.9419 23.7647 17.5556V19.7778C23.7647 20.3914 24.2914 20.8889 24.9412 20.8889H27.2941C27.9439 20.8889 28.4706 20.3914 28.4706 19.7778V17.5556C28.4706 16.9419 27.9439 16.4444 27.2941 16.4444H24.9412ZM23.7647 24.2222C23.7647 23.6086 24.2914 23.1111 24.9412 23.1111H27.2941C27.9439 23.1111 28.4706 23.6086 28.4706 24.2222V26.4444C28.4706 27.0581 27.9439 27.5556 27.2941 27.5556H24.9412C24.2914 27.5556 23.7647 27.0581 23.7647 26.4444V24.2222ZM24.9412 29.7778C24.2914 29.7778 23.7647 30.2752 23.7647 30.8889V33.1111C23.7647 33.7248 24.2914 34.2222 24.9412 34.2222H27.2941C27.9439 34.2222 28.4706 33.7248 28.4706 33.1111V30.8889C28.4706 30.2752 27.9439 29.7778 27.2941 29.7778H24.9412Z" fill="#3258E8"/>
<path fill-rule="evenodd" clip-rule="evenodd" d="M49.6406 16.7059H33.1765V51.9929H38.6122C38.8576 51.9929 39.0565 51.7939 39.0565 51.5485V45.3766C39.0565 44.7676 39.583 44.2738 40.2325 44.2738H44.9366C45.5861 44.2738 46.1126 44.7676 46.1126 45.3766V51.5485C46.1126 51.7939 46.3115 51.9929 46.5569 51.9929H49.6406C52.2547 51.9929 51.9927 52.2433 51.9927 49.7874V18.9114C51.9927 17.6933 50.9396 16.7059 49.6406 16.7059ZM37.8805 20.0141C37.231 20.0141 36.7045 20.5078 36.7045 21.1168V23.3222C36.7045 23.9312 37.231 24.4249 37.8805 24.4249H40.2325C40.882 24.4249 41.4085 23.9312 41.4085 23.3222V21.1168C41.4085 20.5078 40.882 20.0141 40.2325 20.0141H37.8805ZM36.7045 27.7331C36.7045 27.1241 37.231 26.6304 37.8805 26.6304H40.2325C40.882 26.6304 41.4085 27.1241 41.4085 27.7331V29.9385C41.4085 30.5475 40.882 31.0412 40.2325 31.0412H37.8805C37.231 31.0412 36.7045 30.5475 36.7045 29.9385V27.7331ZM37.8805 33.2467C37.231 33.2467 36.7045 33.7404 36.7045 34.3494V36.5548C36.7045 37.1638 37.231 37.6575 37.8805 37.6575H40.2325C40.882 37.6575 41.4085 37.1638 41.4085 36.5548V34.3494C41.4085 33.7404 40.882 33.2467 40.2325 33.2467H37.8805ZM44.9366 20.0141C44.2871 20.0141 43.7606 20.5078 43.7606 21.1168V23.3222C43.7606 23.9312 44.2871 24.4249 44.9366 24.4249H47.2886C47.9381 24.4249 48.4646 23.9312 48.4646 23.3222V21.1168C48.4646 20.5078 47.9381 20.0141 47.2886 20.0141H44.9366ZM43.7606 27.7331C43.7606 27.1241 44.2871 26.6304 44.9366 26.6304H47.2886C47.9381 26.6304 48.4646 27.1241 48.4646 27.7331V29.9385C48.4646 30.5475 47.9381 31.0412 47.2886 31.0412H44.9366C44.2871 31.0412 43.7606 30.5475 43.7606 29.9385V27.7331ZM44.9366 33.2467C44.2871 33.2467 43.7606 33.7404 43.7606 34.3494V36.5548C43.7606 37.1638 44.2871 37.6575 44.9366 37.6575H47.2886C47.9381 37.6575 48.4646 37.1638 48.4646 36.5548V34.3494C48.4646 33.7404 47.9381 33.2467 47.2886 33.2467H44.9366Z" fill="#FEB137"/>
</svg>
