<svg width="64" height="64" viewBox="0 0 64 64" fill="none" xmlns="http://www.w3.org/2000/svg">
<rect width="64" height="64" rx="12" fill="white"/>
<circle cx="28.0338" cy="18.0001" r="6.3" fill="#FEB137"/>
<circle cx="28.0337" cy="18" r="8.5" stroke="#FEB137"/>
<path d="M28.427 15.5C26.9563 15.5 25.764 16.6922 25.764 18.1629V31.4775V37.691L21.0234 32.9504C20.1783 32.1053 18.8404 32.0102 17.8842 32.7273V32.7273C16.8377 33.5122 16.6118 34.9902 17.3762 36.0518L23.9888 45.236C23.9888 45.236 24.4326 47.4551 29.7584 49.6742V54.1124C29.7584 54.6026 30.1558 55 30.6461 55H33.7528H36.8596H39.0787H44.4045C44.8947 55 45.2921 54.6026 45.2921 54.1124V49.6742C46.1798 47.4551 47.0674 45.236 47.0674 42.573V29.7022C47.0674 28.2316 45.8752 27.0393 44.4045 27.0393C42.9338 27.0393 41.7416 28.2316 41.7416 29.7022V27.927C41.7416 26.4563 40.5493 25.264 39.0787 25.264C37.608 25.264 36.4157 26.4563 36.4157 27.927V27.0393C36.4157 25.5686 35.2235 24.3764 33.7528 24.3764C32.2821 24.3764 31.0899 25.5686 31.0899 27.0393V18.1629C31.0899 16.6922 29.8977 15.5 28.427 15.5Z" fill="#3258E8"/>
</svg>
